<?xml version="1.0" encoding="UTF-8" standalone="no"?>
<!-- Created with Inkscape (http://www.inkscape.org/) -->

<svg
   xmlns:dc="http://purl.org/dc/elements/1.1/"
   xmlns:cc="http://creativecommons.org/ns#"
   xmlns:rdf="http://www.w3.org/1999/02/22-rdf-syntax-ns#"
   xmlns:svg="http://www.w3.org/2000/svg"
   xmlns="http://www.w3.org/2000/svg"
   xmlns:xlink="http://www.w3.org/1999/xlink"
   version="1.1"
   width="163.96666"
   height="69.610634"
   id="svg2">
  <title
     id="title3095">The Simpsons Logo</title>
  <defs
     id="defs4" />
  <metadata
     id="metadata7">
    <rdf:RDF>
      <cc:Work
         rdf:about="">
        <dc:format>image/svg+xml</dc:format>
        <dc:type
           rdf:resource="http://purl.org/dc/dcmitype/StillImage" />
        <dc:title>The Simpsons Logo</dc:title>
      </cc:Work>
    </rdf:RDF>
  </metadata>
  <g
     transform="translate(-246.99831,-308.74673)"
     id="layer1"
     style="display:none">
    <image
       xlink:href="file:///C:/Documents%20and%20Settings/admin/Desktop/The_Simpsons_Logo_2009.jpg"
       x="233.21429"
       y="290.93362"
       width="185"
       height="100"
       id="image2993" />
    <image
       xlink:href="file:///C:/Documents%20and%20Settings/admin/Desktop/The_Simpsons_Logo_2009.jpg"
       x="233.21429"
       y="290.93362"
       width="185"
       height="100"
       id="image3000" />
  </g>
  <g
     transform="translate(-13.784018,-17.813112)"
     id="layer2"
     style="display:inline">
    <path
       d="M 28.00067,87.177747 C 17.208969,84.518442 13.36701,82.089622 15.917589,79.539042 c 1.29197,-1.29198 2.2429,-1.30784 7.28451,-0.12157 8.876991,2.08873 22.298571,1.67974 22.298571,-0.67949 0,-0.46302 -5.80672,-4.65882 -12.90382,-9.32399 -7.09709,-4.66517 -14.093601,-10.04201 -15.547781,-11.94855 -4.8509,-6.35986 -4.282009,-12.84381 1.60953,-18.34456 3.39264,-3.1676 12.811041,-7.23742 19.724071,-8.52303 5.07924,-0.94458 6.65148,-0.85273 10.48892,0.6128 3.6608,1.39807 4.73504,2.39349 5.68306,5.266 0.97781,2.96282 0.91217,3.79887 -0.4014,5.11245 -1.42718,1.42717 -1.6621,1.32916 -2.57612,-1.07488 -1.25856,-3.31027 -4.2701,-4.11217 -12.90695,-3.43681 -7.4851,0.5853 -15.325761,3.69298 -17.634841,6.98966 -2.50821,3.58097 -1.92217,8.2351 1.53238,12.16961 1.686881,1.92125 8.382581,7.09587 14.879331,11.49916 6.49676,4.40329 12.07951,8.70235 12.40612,9.55347 0.87807,2.28823 -1.37862,6.48616 -4.29718,7.99365 -2.78487,1.438425 -14.34426,2.686065 -17.55532,1.894785 z"
       id="path3930"
       style="fill:#d25a35;fill-opacity:1;stroke:none;display:inline" />
    <path
       d="m 42.41734,84.961702 c 2.62617,-0.27547 0.002,-1.59212 -3.72292,-1.8679 -10.0197,-0.74184 -12.83376,-1.08482 -14.44375,-1.76037 -1.085941,-0.45567 -1.750001,-0.29185 -1.750001,0.4317 0,0.6413 0.51953,0.84492 1.154511,0.45248 0.74052,-0.45767 0.88196,-0.27255 0.39446,0.51626 -0.56101,0.90773 -1.258051,0.69525 -2.661671,-0.81136 -1.80177,-1.93398 -5.50873,-1.92393 -4.31246,0.0117 0.30985,0.50134 0.94383,0.67638 1.40885,0.38898 0.46502,-0.2874 0.99642,-0.0827 1.1809,0.45477 0.18447,0.53752 1.33631,1.12873 2.55964,1.3138 1.22333,0.18506 2.436131,0.54837 2.695111,0.80736 0.41356,0.41355 13.69829,0.46108 17.49733,0.0626 z"
       id="path3928"
       style="fill:#d25a35;fill-opacity:1;stroke:none;display:inline" />
    <path
       d="m 46.52631,81.531302 c 0.8391,-0.67001 1.45785,-1.7807 1.375,-2.4682 -0.0829,-0.6875 -0.20689,-1.72656 -0.27564,-2.30902 -0.0688,-0.58246 -0.52785,-0.81004 -1.02022,-0.50574 -0.49236,0.3043 -1.14195,-0.0897 -1.44351,-0.87557 -0.65274,-1.70101 -4.66127,-4.03279 -4.66127,-2.71148 0,0.5052 0.7875,1.12514 1.75,1.37765 0.9625,0.2525 2.39134,1.66022 3.17521,3.12827 1.29109,2.41798 1.24403,2.80624 -0.5,4.12573 -1.05887,0.8011 -1.47521,1.45655 -0.92521,1.45655 0.55,0 1.68654,-0.54819 2.52564,-1.21819 z"
       id="path3926"
       style="fill:#d25a35;fill-opacity:1;stroke:none;display:inline" />
    <path
       d="m 34.99747,68.235692 c -6.45584,-4.622 -8.4968,-5.72191 -8.4968,-4.57909 0,0.50262 1.24299,1.42872 2.7622,2.058 1.51921,0.62928 4.10671,2.24269 5.75,3.58536 1.64329,1.34267 3.43636,2.4574 3.9846,2.47718 0.54824,0.0198 -1.25176,-1.57387 -4,-3.54145 z"
       id="path3924"
       style="fill:#d25a35;fill-opacity:1;stroke:none;display:inline" />
    <path
       d="m 22.500669,58.813102 c -1.74243,-2.2 -3.65525,-4 -4.2507,-4 -0.59545,0 -0.82376,-0.25887 -0.50736,-0.57527 0.3164,-0.3164 0.19781,-1.8914 -0.26353,-3.5 -0.46134,-1.6086 -0.51597,-2.92473 -0.12141,-2.92473 0.39457,0 0.78661,-0.91887 0.87121,-2.04194 0.0846,-1.12307 1.15341,-2.85136 2.37513,-3.84066 1.35427,-1.09662 1.81106,-2.05227 1.17025,-2.44831 -1.45732,-0.90067 -6.33703,5.75957 -6.66289,9.09406 -0.34683,3.54913 0.81626,5.89002 5.21048,10.48685 4.746911,4.96579 6.179601,4.8014 2.17882,-0.25 z"
       id="path3922"
       style="fill:#d25a35;fill-opacity:1;stroke:none;display:inline" />
    <path
       d="m 20.500669,58.313102 c 0,-0.275 0.225,-0.5 0.5,-0.5 0.275,0 0.5,0.225 0.5,0.5 0,0.275 -0.225,0.5 -0.5,0.5 -0.275,0 -0.5,-0.225 -0.5,-0.5 z"
       id="path3920"
       style="fill:#d25a35;fill-opacity:1;stroke:none;display:inline" />
    <path
       d="m 16.500669,53.313102 c 0,-0.275 0.225,-0.5 0.5,-0.5 0.275,0 0.5,0.225 0.5,0.5 0,0.275 -0.225,0.5 -0.5,0.5 -0.275,0 -0.5,-0.225 -0.5,-0.5 z"
       id="path3918"
       style="fill:#d25a35;fill-opacity:1;stroke:none;display:inline" />
    <path
       d="m 20.000669,40.813102 c 0.33992,-0.55 0.84303,-1 1.11803,-1 0.275,0 0.22189,0.45 -0.11803,1 -0.33992,0.55 -0.84303,1 -1.11803,1 -0.275,0 -0.22189,-0.45 0.11803,-1 z"
       id="path3916"
       style="fill:#d25a35;fill-opacity:1;stroke:none;display:inline" />
    <path
       d="m 53.16734,39.146432 c -0.36667,-0.36666 -0.66667,-0.0667 -0.66667,0.66667 0,0.73333 0.3,1.03333 0.66667,0.66667 0.36666,-0.36667 0.36666,-0.96667 0,-1.33334 z"
       id="path3914"
       style="fill:#d25a35;fill-opacity:1;stroke:none;display:inline" />
    <path
       d="m 28.14864,37.288642 c 1.01862,-0.24691 4.32703,-1.13425 7.35203,-1.97187 3.025,-0.83762 6.175,-1.22594 7,-0.86294 0.825,0.363 2.40112,0.74189 3.50248,0.84198 1.10137,0.1001 3.05241,0.74389 4.33565,1.43066 1.28324,0.68677 2.59462,0.98721 2.91418,0.66765 0.31956,-0.31956 0.056,-0.58102 -0.58564,-0.58102 -0.64167,0 -1.05417,-0.47246 -0.91667,-1.04991 0.1375,-0.57745 -1.23024,-1.68819 -3.03943,-2.4683 -2.34948,-1.01309 -3.08043,-1.07027 -2.55804,-0.20009 0.55153,0.9187 0.3524,0.91158 -0.80977,-0.029 -1.8546,-1.50097 -10.94299,-0.69122 -12.06651,1.07509 -0.41009,0.64471 -0.75252,0.7796 -0.76094,0.29975 -0.008,-0.47984 -0.69031,-0.31224 -1.51531,0.37245 -0.825,0.68469 -1.5,0.90969 -1.5,0.5 0,-0.40969 -0.6039,-0.24369 -1.34201,0.36888 -0.7381,0.61257 -1.6381,0.81767 -2,0.45578 -0.36189,-0.3619 -0.65799,-0.13299 -0.65799,0.50867 0,0.64167 -0.3375,1.11338 -0.75,1.04825 -1.680971,-0.26542 -2.332191,0.17642 -1.719991,1.16698 0.449041,0.72655 1.050011,0.71495 1.956991,-0.0378 0.71992,-0.59748 2.14236,-1.28835 3.16097,-1.53526 z"
       id="path3912"
       style="fill:#d25a35;fill-opacity:1;stroke:none;display:inline" />
    <path
       d="m 28.50067,36.313102 c 0,-0.275 0.225,-0.5 0.5,-0.5 0.275,0 0.5,0.225 0.5,0.5 0,0.275 -0.225,0.5 -0.5,0.5 -0.275,0 -0.5,-0.225 -0.5,-0.5 z"
       id="path3910"
       style="fill:#d25a35;fill-opacity:1;stroke:none;display:inline" />
    <path
       d="m 50.50067,35.313102 c 0,-0.275 0.225,-0.5 0.5,-0.5 0.275,0 0.5,0.225 0.5,0.5 0,0.275 -0.225,0.5 -0.5,0.5 -0.275,0 -0.5,-0.225 -0.5,-0.5 z"
       id="path3908"
       style="fill:#d25a35;fill-opacity:1;stroke:none;display:inline" />
    <path
       d="m 173.22152,52.063112 c -0.4442,0.01591 -0.92389,0.08151 -1.4375,0.15625 -6.15674,0.8959 -11.28125,6.63977 -11.28125,12.65625 0,2.52725 0.90383,4.08873 4.125,7.0625 4.7415,4.37733 4.36179,5.91595 -1.96875,7.9375 -4.41068,1.40847 -5.61525,2.39317 -4.71875,3.84375 0.96611,1.5632 3.48171,1.32448 8.1875,-0.8125 4.09388,-1.8591 7.375,-5.3602 7.375,-7.84375 0,-0.71491 -1.8,-3.23829 -4,-5.625 -4.64667,-5.04104 -4.93026,-6.7885 -1.5625,-10.15625 3.09008,-3.09009 6.13068,-3.21575 6.90625,-0.25 0.78133,2.98785 2.90625,0.98472 2.90625,-2.75 0,-2.970021 -1.42188,-4.330116 -4.53125,-4.21875 z"
       id="path3906"
       style="fill:#d25a35;fill-opacity:1;stroke:none;display:inline" />
    <path
       d="m 54.84304,78.262912 c -0.34538,-0.90004 -0.10583,-4.63194 0.53233,-8.29312 0.63817,-3.66118 1.26492,-8.45669 1.3928,-10.65669 0.16191,-2.78555 0.68792,-4 1.7325,-4 1.95699,0 2.36467,3.86853 1.50311,14.26346 -0.5555,6.70237 -1.04835,8.45798 -2.60884,9.29312 -1.49769,0.80155 -2.06307,0.66712 -2.5519,-0.60677 z"
       id="path3884"
       style="fill:#d25a35;fill-opacity:1;stroke:none;display:inline" />
    <path
       d="m 57.95533,70.737922 c 0.37122,-4.27593 0.27606,-4.80761 -0.44931,-2.5105 -0.50615,1.60287 -0.71161,3.25194 -0.45658,3.66459 0.25503,0.41265 -0.0701,0.92819 -0.72245,1.14565 -0.70734,0.23578 -0.90219,1.13535 -0.48269,2.22854 1.03871,2.70684 1.58455,1.53598 2.11103,-4.52828 z"
       id="path3882"
       style="fill:#d25a35;fill-opacity:1;stroke:none;display:inline" />
    <path
       d="m 58.76147,62.923802 c 0.27174,-1.03912 0.10611,-2.50162 -0.36806,-3.25 -0.58614,-0.92513 -0.86702,-0.32034 -0.87743,1.8893 -0.0171,3.63839 0.50165,4.20517 1.24549,1.3607 z"
       id="path3880"
       style="fill:#d25a35;fill-opacity:1;stroke:none;display:inline" />
    <path
       d="m 83.23485,77.904592 c -0.2745,-1.04968 -0.16698,-3.72468 0.23893,-5.94444 0.4559,-2.49315 0.33452,-4.43942 -0.31754,-5.09148 -1.53132,-1.53132 0.63797,-1.34526 2.26684,0.19443 1.08319,1.02388 1.15903,0.88821 0.41927,-0.75 -0.49673,-1.1 -0.8431,-3.29621 -0.7697,-4.88046 l 0.13344,-2.88046 -1.77741,2.35636 c -0.97757,1.296 -1.69879,2.76096 -1.60271,3.25546 0.0961,0.49451 -0.41302,1.11376 -1.13134,1.37612 -1.00263,0.36619 -0.94455,-0.38818 0.25,-3.24713 0.85582,-2.04827 1.55604,-3.92548 1.55604,-4.17156 0,-0.24609 1.0125,-0.30363 2.25,-0.12788 2.1257,0.3019 2.26596,0.8361 2.53886,9.67026 0.18643,6.03499 -0.12294,9.8469 -0.87245,10.75001 -1.58935,1.91505 -2.59015,1.75491 -3.18223,-0.50923 z"
       id="path3878"
       style="fill:#d25a35;fill-opacity:1;stroke:none;display:inline" />
    <path
       d="m 85.79042,74.813102 c 0.28765,-1.1 0.11514,-2 -0.38337,-2 -0.49851,0 -0.90638,0.9 -0.90638,2 0,1.1 0.17252,2 0.38337,2 0.21085,0 0.61872,-0.9 0.90638,-2 z"
       id="path3876"
       style="fill:#d25a35;fill-opacity:1;stroke:none;display:inline" />
    <path
       d="m 86.50067,71.313102 c 0,-0.275 -0.225,-0.5 -0.5,-0.5 -0.275,0 -0.5,0.225 -0.5,0.5 0,0.275 0.225,0.5 0.5,0.5 0.275,0 0.5,-0.225 0.5,-0.5 z"
       id="path3874"
       style="fill:#d25a35;fill-opacity:1;stroke:none;display:inline" />
    <path
       d="m 109.87419,78.344282 c -2.73229,-1.9979 -1.00189,-4.53118 3.0951,-4.53118 4.24263,0 4.44124,-1.19676 1.03138,-6.21481 -3.7018,-5.4477 -3.30402,-8.19022 1.71533,-11.82622 2.9474,-2.13508 5.12813,-2.96414 7.25,-2.75627 3.96984,0.38892 3.99073,2.97861 0.0347,4.2973 -6.38016,2.12672 -7.10669,4.52696 -3,9.91111 3.15461,4.13591 3.26651,8.1083 0.27353,9.71009 -3.94814,2.11298 -8.57983,2.74092 -10.40001,1.40998 z"
       id="path3872"
       style="fill:#d25a35;fill-opacity:1;stroke:none;display:inline" />
    <path
       d="m 114.35743,76.703412 c -1.766,-1.11899 -3.85676,-1.12729 -3.85676,-0.0153 0,0.48125 1.17304,0.875 2.60676,0.875 1.83967,0 2.20751,-0.25298 1.25,-0.85969 z"
       id="path3870"
       style="fill:#d25a35;fill-opacity:1;stroke:none;display:inline" />
    <path
       d="m 119.79349,73.133802 c -0.44713,-1.16521 -0.2603,-1.41864 0.63701,-0.86407 1.00801,0.62299 1.02955,0.33599 0.10452,-1.39244 -0.64085,-1.19744 -1.81074,-2.42489 -2.59976,-2.72767 -0.78903,-0.30277 -1.43459,-1.17735 -1.43459,-1.94351 0,-0.76616 -0.43588,-1.39301 -0.96862,-1.39301 -0.53273,0 -0.73725,-0.6029 -0.45449,-1.33979 0.28277,-0.73688 -0.18135,-1.91698 -1.03138,-2.62244 -1.29766,-1.07696 -1.54551,-0.991 -1.54551,0.53603 0,2.53036 5.02096,9.53128 6.27836,8.75416 0.66246,-0.40942 0.71697,-0.13522 0.15258,0.76753 -0.48294,0.77248 -0.88997,2.07951 -0.90451,2.90451 -0.0163,0.92452 -0.79374,1.38809 -2.02643,1.2083 -1.58555,-0.23125 -1.70033,-0.0903 -0.55388,0.68023 2.05356,1.38018 5.15795,-0.45375 4.3467,-2.56783 z"
       id="path3868"
       style="fill:#d25a35;fill-opacity:1;stroke:none;display:inline" />
    <path
       d="m 119.12264,56.813102 c 0.75792,0 1.37803,-0.47656 1.37803,-1.05902 0,-0.58246 -0.5625,-0.73901 -1.25,-0.34789 -2.47359,1.40722 -4.74899,3.738 -4.69755,4.8119 0.0289,0.60225 0.75874,0.0825 1.62197,-1.15499 0.86324,-1.2375 2.18964,-2.25 2.94755,-2.25 z"
       id="path3866"
       style="fill:#d25a35;fill-opacity:1;stroke:none;display:inline" />
    <path
       d="m 123.50067,54.813102 c 0,-0.55 -0.19844,-1 -0.44098,-1 -0.24254,0 -0.7191,0.45 -1.05902,1 -0.33992,0.55 -0.14148,1 0.44098,1 0.58246,0 1.05902,-0.45 1.05902,-1 z"
       id="path3864"
       style="fill:#d25a35;fill-opacity:1;stroke:none;display:inline" />
    <path
       d="m 117.78125,45.34375 c -1.42659,0.103018 -2.30136,1.524369 -3.96875,4.96875 -2.33749,4.82861 -2.57426,6.92524 -1.0625,9.75 1.39033,2.59785 8.97574,2.72638 11.15625,0.1875 3.92431,-4.56926 2.6124,-11.29753 -2.6875,-13.8125 -1.54722,-0.734205 -2.58154,-1.155561 -3.4375,-1.09375 z m 1.78125,5.75 c 2.14149,-0.136157 3.20214,1.941306 2,4.1875 -0.63502,2.088011 -1.72861,2.673319 -3,2.90625 -2.32318,0.4441 -2.45286,0.26908 -1.90625,-3.09375 0.39064,-2.40324 1.21156,-3.69539 2.46875,-3.9375 0.15191,-0.02926 0.29473,-0.05342 0.4375,-0.0625 z"
       transform="translate(13.784018,17.813112)"
       id="path3862"
       style="fill:#d25a35;fill-opacity:1;stroke:none;display:inline" />
    <path
       d="m 127.50067,74.813112 c 0,-0.73333 0.3,-1.03333 0.66667,-0.66667 0.36666,0.36667 0.36666,0.96667 0,1.33334 -0.36667,0.36666 -0.66667,0.0667 -0.66667,-0.66667 z"
       id="path3858"
       style="fill:#d25a35;fill-opacity:1;stroke:none;display:inline" />
    <path
       d="m 152.40902,56.813112 c -1.82643,0 -2.05275,0.40441 -1.5,2.75 2.25752,9.57977 1.44001,15.09542 -1.4375,9.71875 -0.83107,-1.55288 -2.16853,-2.46875 -3.65625,-2.46875 -2.67413,0 -2.92792,0.46657 -3.78125,7.75 -0.50984,4.35158 -0.32362,5.25 0.96875,5.25 0.85755,0 1.97723,-1.125 2.5,-2.5 1.1194,-2.94424 1.72497,-3.0723 4.1875,-0.84375 1.72591,1.56193 1.97635,1.53845 4.3125,-0.65625 2.09392,-1.96714 2.5,-3.24856 2.5,-8.09375 0,-7.41268 -1.3087,-10.90625 -4.09375,-10.90625 z"
       id="path3852"
       style="fill:#d25a35;fill-opacity:1;stroke:none;display:inline" />
    <path
       d="m 65.92768,75.483512 c -0.31022,-0.80843 0.14179,-3.84667 1.00448,-6.75164 0.86268,-2.90497 1.56851,-6.25534 1.56851,-7.44527 0,-1.18994 0.92634,-3.00184 2.05854,-4.02646 2.80929,-2.54238 4.95306,-1.04582 7.2237,5.04281 2.13358,5.7211 1.50623,7.23145 -0.90417,2.17679 -0.97202,-2.03834 -2.17514,-3.30134 -2.79286,-2.93184 -0.59687,0.35702 -0.50086,-0.0722 0.21335,-0.9538 1.70183,-2.10073 -0.0679,-3.2424 -2.77789,-1.79205 -3.56051,1.90552 -2.40436,4.62419 1.73676,4.084 1.17841,-0.15372 3.75891,4.52892 3.40405,6.17706 -0.26936,1.25104 1.07633,0.84476 3.01591,-0.91054 2.48551,-2.24935 3.60219,-0.85837 1.32816,1.65441 -2.05413,2.26979 -4.35379,2.61705 -5.00726,0.75613 -2.9802,-8.48682 -3.73043,-8.47384 -4.49269,0.0777 -0.44048,4.94166 -0.79598,5.71351 -2.76007,5.99241 -1.29915,0.18448 -2.49348,-0.30271 -2.81852,-1.14974 z"
       id="path3840"
       style="fill:#d25a35;fill-opacity:1;stroke:none;display:inline" />
    <path
       d="m 69.72595,73.563112 c 0.2416,-0.6875 0.1096,-2.375 -0.29333,-3.75 -0.70948,-2.42115 -0.92458,-2.00548 -1.42304,2.75 -0.25037,2.3886 0.9771,3.10375 1.71637,1 z"
       id="path3838"
       style="fill:#d25a35;fill-opacity:1;stroke:none;display:inline" />
    <path
       d="m 69.50067,66.313112 c 0,-0.275 -0.225,-0.5 -0.5,-0.5 -0.275,0 -0.5,0.225 -0.5,0.5 0,0.275 0.225,0.5 0.5,0.5 0.275,0 0.5,-0.225 0.5,-0.5 z"
       id="path3836"
       style="fill:#d25a35;fill-opacity:1;stroke:none;display:inline" />
    <path
       d="m 73.16496,61.428954 c 0,-1.164174 -0.923406,-2.116681 -2.052014,-2.116681 -1.128607,0 -2.052013,0.952507 -2.052013,2.116681 0,1.164174 0.923406,2.116681 2.052013,2.116681 1.128608,0 2.052014,-0.952507 2.052014,-2.116681 z"
       id="path3834"
       style="fill:#d25a35;fill-opacity:1;stroke:none;display:inline" />
    <path
       d="M 88.46875,36.125 C 85.562345,36.306164 82.780723,38.908086 81.875,44 c -0.47563,2.67398 -1.28333,4.40406 -2,4.25 -1.98903,-0.4276 -2.5209,2.70271 -0.78125,4.625 0.8917,0.98532 1.625,2.57173 1.625,3.53125 0,2.85176 3.46436,1.46062 3.8125,-1.53125 0.27261,-2.34284 0.68858,-2.5926 4.21875,-2.5 5.50173,0.14426 8.46479,-2.87788 7.5625,-7.6875 -1.101818,-5.873213 -4.549824,-8.76782 -7.84375,-8.5625 z m 0.46875,4.03125 c 0.599778,0.05146 1.297086,0.74664 2.21875,2.0625 2.69838,3.85249 2.03355,5.78125 -2,5.78125 -0.855591,0 -1.563492,0.08447 -2.09375,0.21875 l -1.8125,-1.25 c 0.482531,-1.080792 1.023775,-2.434054 1.5,-3.71875 0.798632,-2.154471 1.416357,-3.159918 2.1875,-3.09375 z"
       transform="translate(13.784018,17.813112)"
       id="path3832"
       style="fill:#d25a35;fill-opacity:1;stroke:none;display:inline" />
    <path
       d="m 70.924713,60.929513 c -1.083993,-1.894432 -0.451175,-3.444421 1.406272,-3.444421 1.857445,0 3.377179,1.549989 3.377179,3.444421 0,1.894431 -0.632818,3.444421 -1.406271,3.444421 -0.773451,0 -2.293186,-1.54999 -3.37718,-3.444421 z"
       id="path3810"
       style="fill:#d25a35;fill-opacity:1;stroke:none;display:inline" />
    <path
       d="m 73.50067,59.313112 c 0,-0.275 0.225,-0.5 0.5,-0.5 0.275,0 0.5,0.225 0.5,0.5 0,0.275 -0.225,0.5 -0.5,0.5 -0.275,0 -0.5,-0.225 -0.5,-0.5 z"
       id="path3808"
       style="fill:#d25a35;fill-opacity:1;stroke:none;display:inline" />
    <path
       d="m 80.034018,19.844362 c -0.794766,-0.0064 -1.725275,0.84537 -2.15625,2.5625 -0.60607,2.41478 -0.97745,2.56082 -5.75,2.25 -4.22687,-0.27528 -5.1551,-0.04556 -5.4375,1.40625 -0.36942,1.89921 0.32622,2.24696 6.15625,3.21875 l 3.84375,0.65625 -0.21875,5.6875 c -0.1143,3.12845 -0.15945,6.025 -0.09375,6.4375 0.17864,1.12201 0.8217,0.92831 2.5625,-0.8125 1.04261,-1.0426 1.5625,-3.39827 1.5625,-7 0,-5.28299 0.07896,-5.4375 2.8125,-5.4375 3.42633,0 6.75623,-2.24689 5.75,-3.875 -0.46797,-0.7572 -1.96479,-0.94237 -4.15625,-0.53125 -3.18628,0.59775 -3.40625,0.46265 -3.40625,-1.96875 0,-1.72058 -0.673984,-2.587387 -1.46875,-2.59375 z"
       id="path3806"
       style="fill:#d25a35;fill-opacity:1;stroke:none;display:inline" />
    <path
       d="m 101.72151,17.938112 c -0.92397,0.0048 -1.21875,0.85517 -1.21875,3.1875 0,6.79207 -1.071797,9.82873 -3.374997,9.5 -1.9151,-0.27333 -2.09006,-0.85508 -1.8125,-6.0625 0.23798,-4.46485 -0.01346,-5.75 -1.125,-5.75 -1.37968,0 -2.687495,3.99762 -2.687495,8.25 0,1.10811 -0.7875,2.62912 -1.75,3.34375 -1.47146,1.09253 -1.55104,1.62228 -0.5,3.34375 0.6875,1.12603 1.25,3.30921 1.25,4.875 0,1.5658 0.30937,3.15312 0.6875,3.53125 1.427705,1.4277 2.809845,-0.13411 2.906245,-3.28125 0.0975,-3.18326 1.89391,-5.34642 3.90625,-4.71875 0.55,0.17156 1.225,2.04224 1.5,4.15625 0.275,2.11402 1.024117,4.01089 1.656247,4.21875 1.4395,0.47337 2.69395,-7.70626 2.65625,-17.21875 -0.0225,-5.68674 -0.31893,-7.04984 -1.65625,-7.3125 -0.15905,-0.03124 -0.3055,-0.06319 -0.4375,-0.0625 z"
       id="path3800"
       style="fill:#d25a35;fill-opacity:1;stroke:none;display:inline" />
    <path
       d="m 117.84652,17.813112 c -5.75696,0 -11.34375,7.399 -11.34375,15.03125 0,3.21678 0.6222,4.74721 2.90625,7.03125 1.61153,1.61154 3.96713,2.93045 5.25,2.90625 5.8065,-0.10953 14.9558,-5.26295 12.9375,-7.28125 -0.60057,-0.60057 -2.23175,-0.15641 -4.40625,1.1875 -2.78355,1.72033 -5.14088,2.351555 -7.375,1.9375 -0.80178,-0.148596 -1.59315,-0.425317 -2.375,-0.84375 -2.88483,-1.54391 -2.34445,-3.64986 1.125,-4.34375 1.6857,-0.33714 4.44636,-1.9776 6.125,-3.65625 2.5362,-2.5362 2.92388,-3.56807 2.40625,-6.15625 -0.82686,-4.1343 -2.32468,-5.8125 -5.25,-5.8125 z m -0.1875,4.53125 c 0.12588,-0.0092 0.25726,-0.01438 0.375,0 0.85633,0.104557 1.46875,0.845325 1.46875,2.4375 0,1.084419 -2.76546,4.06508 -5.09375,5.96875 l -1.5,-1.84375 c 0.009,-0.116997 0.0259,-0.221143 0.0312,-0.34375 0.14747,-3.368675 2.83051,-6.081409 4.71875,-6.21875 z"
       id="path3786"
       style="fill:#d25a35;fill-opacity:1;stroke:none;display:inline" />
    <path
       d="m 79.212948,68.119058 c 0,-1.057473 -0.894306,-1.922679 -1.987347,-1.922679 -1.09304,0 -1.987346,0.865206 -1.987346,1.922679 0,1.057473 0.894306,1.92268 1.987346,1.92268 1.093041,0 1.987347,-0.865207 1.987347,-1.92268 z"
       id="path3834-1"
       style="fill:#d25a35;fill-opacity:1;stroke:none;display:inline" />
    <path
       d="m 78.436941,64.627027 c 0,-1.356236 -0.993247,-2.465884 -2.207216,-2.465884 -1.213967,0 -2.207214,1.109648 -2.207214,2.465884 0,1.356236 0.993247,2.465884 2.207214,2.465884 1.213969,0 2.207216,-1.109648 2.207216,-2.465884 z"
       id="path3834-7"
       style="fill:#d25a35;fill-opacity:1;stroke:none;display:inline" />
    <rect
       width="3.0728297"
       height="7.4991679"
       x="82.673752"
       y="58.535088"
       id="rect3981-8"
       style="fill:#d25a35;fill-opacity:1;stroke:none;display:inline" />
    <rect
       width="3.0728297"
       height="3.4752243"
       x="83.771194"
       y="65.339218"
       id="rect3981-82"
       style="fill:#d25a35;fill-opacity:1;stroke:none;display:inline" />
    <rect
       width="3.0728297"
       height="3.4752243"
       x="81.185905"
       y="61.893539"
       id="rect3981-45"
       style="fill:#d25a35;fill-opacity:1;stroke:none;display:inline" />
    <rect
       width="3.3615313"
       height="3.7956066"
       x="101.3868"
       y="17.190218"
       transform="matrix(0.87620877,0.48193174,-0.48417119,0.87497329,0,0)"
       id="rect3981-5"
       style="fill:#d25a35;fill-opacity:1;stroke:none;display:inline" />
    <rect
       width="3.0728297"
       height="3.4752243"
       x="77.40934"
       y="66.653053"
       id="rect3981-1"
       style="fill:#d25a35;fill-opacity:1;stroke:none;display:inline" />
  </g>
</svg>
